
<svg width="26" height="26" viewBox="0 0 26 26" fill="none" xmlns="http://www.w3.org/2000/svg">
<path d="M10.6413 20.4373V14.5242C10.6413 14.3331 10.6986 14.1802 10.8133 14.0655C10.9334 13.9509 11.089 13.8935 11.2801 13.8935H14.7199C14.911 13.8935 15.0639 13.9509 15.1785 14.0655C15.2932 14.1802 15.3505 14.3331 15.3505 14.5242V20.4373H10.6413ZM7.43898 21.502C6.81654 21.502 6.3306 21.3328 5.98116 20.9943C5.63172 20.6557 5.457 20.1862 5.457 19.5856V10.5029L7.07043 9.40541V19.086C7.07043 19.3481 7.13868 19.5474 7.27518 19.6839C7.41168 19.8258 7.60824 19.8968 7.86486 19.8968H18.0942C18.3508 19.8968 18.5446 19.8258 18.6757 19.6839C18.8122 19.5474 18.8804 19.3481 18.8804 19.086V9.40541L20.4857 10.5029V19.5856C20.4857 20.1862 20.3137 20.6557 19.9697 20.9943C19.6257 21.3328 19.1425 21.502 18.5201 21.502H7.43898ZM3 12.2555C3 11.9989 3.10647 11.7832 3.31941 11.6085L11.8534 4.44226C12.2083 4.14742 12.5932 4 13.0082 4C13.4232 4 13.8054 4.14742 14.1548 4.44226L22.6806 11.6085C22.8935 11.7832 23 12.0071 23 12.2801C23 12.5149 22.9181 12.7005 22.7543 12.837C22.596 12.9735 22.3994 13.0418 22.1646 13.0418C22.039 13.0418 21.9189 13.0117 21.8043 12.9517C21.6896 12.8916 21.5831 12.8234 21.4848 12.7469L13.3604 5.92465C13.2457 5.82637 13.1283 5.77723 13.0082 5.77723C12.8881 5.77723 12.7707 5.82637 12.656 5.92465L4.52334 12.7469C4.4196 12.8234 4.3104 12.8916 4.19574 12.9517C4.08654 13.0117 3.96915 13.0418 3.84357 13.0418C3.58149 13.0418 3.37401 12.9653 3.22113 12.8124C3.07371 12.6541 3 12.4685 3 12.2555ZM18.1679 8.28337V6.27682C18.1679 6.09664 18.2225 5.95195 18.3317 5.84275C18.4464 5.72809 18.5938 5.67076 18.774 5.67076H19.8878C20.068 5.67076 20.2127 5.72809 20.3219 5.84275C20.4311 5.95195 20.4857 6.09664 20.4857 6.27682V10.2326L18.1679 8.28337Z" fill="#218759"/>
</svg>
